<svg xmlns="http://www.w3.org/2000/svg" width="1405" height="120" viewBox="0 0 1405 120" fill="none"><path d="M929.815 29.8781L946.952 26.8267V92.2955H929.815V29.8781ZM954.845 29.8781V92.2955H972V26.8267L954.845 29.8781ZM905.399 92.2955H922.55V44.4108H905.399V92.2955ZM792.072 51.182C789.904 51.0411 784.886 50.7188 784.886 46.2237C784.886 40.801 792.111 40.801 794.82 40.801C799.585 40.801 805.755 42.2004 810.162 43.5125C810.162 43.5125 812.62 44.3743 814.712 45.2574L814.906 45.3102V45.1133V30.4565L814.64 30.378C809.439 28.5683 803.392 26.8271 792.181 26.8271C772.849 26.8271 766 38.0303 766 47.6279C766 53.1606 768.383 66.1826 790.522 67.6849C792.399 67.7985 797.379 68.0847 797.379 72.7288C797.379 76.5636 793.302 78.8248 786.444 78.8248C778.929 78.8248 771.636 76.9178 767.209 75.1097V90.407C773.839 92.1354 781.311 93 790.071 93C808.972 93 817.437 82.4001 817.437 71.8942C817.437 59.9822 807.963 52.2407 792.072 51.182ZM895.733 43.7095C879.884 44.2162 871.837 51.29 871.837 65.3532V92.2955H889.13V70.3243C889.13 61.9044 890.239 58.293 900.281 57.95V43.9568C898.592 43.5994 895.733 43.7095 895.733 43.7095ZM849.213 44.3555C848.831 45.3102 846.087 53.0265 839.444 61.0249V26.8267L821.749 30.306V92.2951H839.444V73.1339C844.57 80.7805 847.1 92.2951 847.1 92.2951H868.296C866.2 83.623 857.028 67.634 857.028 67.634C865.259 57.2515 868.874 46.1896 869.449 44.3555H849.213ZM913.97 39.8171C918.641 39.8171 922.425 36.0541 922.425 31.4112C922.425 26.7679 918.641 23 913.97 23C909.306 23 905.522 26.7679 905.522 31.4112C905.522 36.0536 909.306 39.8171 913.97 39.8171Z" fill="#862165"></path><path d="M1379.03 41.2924C1374.9 38.4657 1368.58 37 1360.37 37H1338.78L1330.73 80.6047H1302.45L1304.28 70.7112H1321.32L1323.36 59.6137L1306.32 59.6661L1308.15 49.8249H1325.71L1328.06 37.0523H1292.41L1284.78 78.4585H1271.71L1279.39 37.0523H1260.78L1253.15 78.4585H1240.4L1248.08 37H1229.47L1221.42 80.657H1192.93L1194.76 70.7635H1211.85L1213.89 59.7184H1196.8L1198.63 49.8249H1216.35L1218.65 37.0523H1107.62L1101.29 71.6011L1088.69 37.0523H1069.35L1059 93.4296H1077.45L1083.73 57.8863L1095.96 93.4296H1162.09L1170.14 49.8249H1180.49L1172.44 93.4819H1346.46L1351.48 65.9476L1359.64 93.4819H1378.09L1369.62 70.9729L1371.56 70.5541C1375.79 69.6643 1379.14 67.6751 1381.44 64.7437C1383.74 61.7599 1384.94 57.9386 1384.94 53.3845C1385.04 47.9928 1383.06 44.0668 1379.03 41.2924ZM1146.04 80.657H1117.81L1119.64 70.7635H1137.36L1139.4 59.6137H1121.84L1123.51 49.8249H1151.74L1146.04 80.657ZM1363.82 61.6552C1361.99 62.9639 1359.27 63.5921 1355.61 63.5921H1353.99H1351.95L1354.78 48.4639H1356.19H1357.44C1360.47 48.4639 1362.72 48.935 1364.29 49.9819C1365.49 50.7671 1366.9 52.3375 1366.9 55.269C1366.9 58.7238 1365.23 60.6606 1363.82 61.6552Z" fill="#8CC63F"></path><path d="M1393.36 89.765L1392.89 80.9185L1396.81 80.7091C1397.59 80.6567 1398.22 80.7091 1398.64 80.8661C1399.05 81.0232 1399.42 81.2849 1399.68 81.6513C1399.94 82.0177 1400.1 82.4889 1400.1 82.96C1400.15 83.5881 1399.94 84.1116 1399.58 84.5827C1399.21 85.0538 1398.58 85.3156 1397.75 85.525C1398.06 85.682 1398.32 85.7867 1398.48 85.9437C1398.84 86.2578 1399.16 86.6242 1399.52 87.0954L1401.2 89.451L1399.73 89.5033L1398.48 87.7235C1398.11 87.2001 1397.8 86.8336 1397.59 86.5196C1397.38 86.2578 1397.17 86.0484 1396.96 85.9437C1396.81 85.839 1396.6 85.7867 1396.44 85.7344C1396.28 85.7344 1396.07 85.7344 1395.76 85.7344L1394.4 85.7867L1394.61 89.7127L1393.36 89.765ZM1394.24 84.7921L1396.75 84.6874C1397.28 84.6351 1397.69 84.5827 1398.01 84.478C1398.32 84.3733 1398.53 84.164 1398.69 83.9022C1398.84 83.6405 1398.9 83.3788 1398.9 83.117C1398.9 82.6983 1398.69 82.3842 1398.37 82.1224C1398.06 81.8607 1397.59 81.756 1396.91 81.8084L1394.09 81.9654L1394.24 84.7921Z" fill="#8CC63F"></path><path d="M1395.92 76.8351C1393.72 76.9398 1391.68 77.9344 1390.22 79.5571C1388.76 81.1798 1387.97 83.3261 1388.08 85.5246C1388.29 90.0788 1392.21 93.6383 1396.75 93.3766C1401.3 93.1672 1404.86 89.2412 1404.6 84.6871C1404.39 80.1329 1400.52 76.6257 1395.92 76.8351ZM1389.49 85.4723C1389.38 83.6401 1390.01 81.8604 1391.27 80.4993C1392.52 79.1383 1394.19 78.3531 1396.02 78.2484C1399.79 78.0391 1403.03 80.9705 1403.24 84.7918C1403.24 84.8965 1403.24 85.0535 1403.24 85.1582C1403.24 88.7701 1400.36 91.8585 1396.7 92.0156C1392.94 92.225 1389.7 89.2936 1389.49 85.4723Z" fill="#8CC63F"></path><g clip-path="url(#clip0_1172_142)"><mask id="mask0_1172_142" style="mask-type:luminance" maskUnits="userSpaceOnUse" x="0" y="35" width="186" height="58"><path d="M186 35H0V93H186V35Z" fill="white"></path></mask><g mask="url(#mask0_1172_142)"><path d="M95.4312 91.6012C95.5192 91.573 95.614 91.5706 95.7035 91.5943C95.7929 91.6181 95.8731 91.6669 95.9338 91.7346C95.8467 91.7704 95.7496 91.7767 95.6583 91.7525C95.5671 91.7283 95.487 91.6749 95.4312 91.6012Z" fill="#298EE6"></path><path d="M151.263 83.5602C151.326 83.447 151.401 83.4308 151.494 83.5319L151.263 83.5602Z" fill="#0F3A90"></path><path d="M151.042 83.7459L151.218 83.5762C151.214 83.62 151.195 83.661 151.162 83.6921C151.13 83.7232 151.087 83.7422 151.042 83.7459Z" fill="#0F3A90"></path><path d="M135.193 37.2062C134.909 37.1365 134.629 37.0501 134.356 36.9476C130.107 35.5713 125.644 34.9124 121.163 34.9999C115.45 34.8989 109.825 36.3616 104.938 39.2186C102.746 40.4594 100.86 42.1469 99.4138 44.1633C97.967 46.1796 96.9938 48.4763 96.5619 50.893C96.196 52.6216 96.2055 54.4046 96.5898 56.1295C96.974 57.8544 97.7246 59.4837 98.7942 60.9146C100.149 62.6604 101.785 64.1857 103.64 65.4324C105.865 66.8959 108.211 68.1798 110.655 69.2713C112.443 70.0641 114.108 71.0907 115.605 72.3223C116.166 72.7528 116.61 73.308 116.9 73.9404C117.19 74.5728 117.317 75.2636 117.269 75.9535C117.222 76.6434 117.002 77.312 116.628 77.9021C116.255 78.4921 115.738 78.986 115.124 79.3414C113.575 80.3461 111.78 80.9411 109.918 81.0669C105.663 81.4518 101.373 80.9247 97.3535 79.5233C96.0468 79.0788 94.7861 78.5453 93.5297 77.9837C92.8261 77.6685 92.8177 77.6887 92.6166 78.4403C92.6106 78.4749 92.6008 78.5087 92.5874 78.5413C91.7749 82.1054 90.9917 85.6736 90.1499 89.2337C90.1047 89.3376 90.0844 89.45 90.0904 89.5626C90.0963 89.6751 90.1285 89.7849 90.1844 89.8839C90.2403 89.9828 90.3185 90.0684 90.4133 90.1342C90.5081 90.2 90.617 90.2444 90.732 90.2641C92.2582 90.8332 93.8298 91.2818 95.4311 91.6058C95.5192 91.5775 95.6139 91.5751 95.7034 91.5989C95.7928 91.6226 95.873 91.6714 95.9337 91.7391L96.3525 91.7997C96.9828 92.0974 97.684 92.2272 98.3837 92.1755L98.7314 92.224C98.8271 92.3138 98.9485 92.3737 99.08 92.396C99.2114 92.4184 99.3467 92.4021 99.4685 92.3493L100.017 92.418C100.613 92.6439 101.26 92.7163 101.893 92.6281L101.944 92.6483H101.998C102.508 92.842 103.067 92.8842 103.602 92.7695L104.821 92.8423C106.22 93.066 107.648 93.066 109.047 92.8423L109.608 92.8019L109.675 92.8423L109.738 92.7938L110.291 92.7251C111.263 92.8064 112.242 92.7076 113.176 92.4342L113.528 92.3776C114.166 92.4255 114.805 92.3024 115.375 92.022L115.92 91.9209C116.007 91.9638 116.108 91.9755 116.203 91.9541C116.299 91.9326 116.384 91.8794 116.443 91.8038L116.774 91.6947C116.802 91.7151 116.834 91.7291 116.868 91.7355C116.903 91.7419 116.938 91.7406 116.972 91.7316C117.005 91.7226 117.036 91.7062 117.062 91.6836C117.088 91.6611 117.109 91.6331 117.122 91.6017L117.679 91.4643C117.701 91.4832 117.728 91.4963 117.756 91.5023C117.785 91.5082 117.815 91.5069 117.844 91.4983C117.872 91.4898 117.897 91.4744 117.918 91.4535C117.938 91.4327 117.952 91.4072 117.959 91.3795L118.328 91.2582C118.353 91.2765 118.382 91.289 118.413 91.2947C118.444 91.3003 118.476 91.299 118.507 91.2907C118.537 91.2825 118.565 91.2677 118.588 91.2473C118.612 91.227 118.63 91.2017 118.642 91.1734L118.973 91.0602C118.999 91.0765 119.029 91.0866 119.06 91.0898C119.091 91.093 119.123 91.0892 119.152 91.0786C119.181 91.068 119.207 91.0509 119.229 91.0288C119.25 91.0067 119.266 90.9801 119.274 90.9511L119.63 90.8299L119.718 90.8622L119.735 90.7652C121.32 90.2429 122.831 89.5316 124.233 88.6478C126.562 87.3184 128.546 85.4928 130.032 83.3104C131.518 81.128 132.467 78.6467 132.806 76.0561C133.161 74.1825 133.103 72.258 132.636 70.4074C132.169 68.5569 131.304 66.8219 130.096 65.3152C128.585 63.5568 126.782 62.0521 124.761 60.8621C122.461 59.4356 120.016 58.2678 117.612 57.0191C115.961 56.2708 114.448 55.2691 113.13 54.053C112.756 53.7265 112.458 53.3264 112.256 52.8796C112.055 52.4329 111.955 51.9497 111.963 51.4626C111.971 50.9755 112.086 50.4957 112.302 50.0552C112.518 49.6148 112.829 49.224 113.214 48.9089C113.577 48.5614 113.987 48.2624 114.433 48.0199C116.001 47.1808 117.758 46.7244 119.551 46.6904C123.821 46.4882 128.084 47.2117 132.027 48.8079C132.367 49.0053 132.75 49.1242 133.145 49.1554C133.203 49.0606 133.251 48.9604 133.288 48.8564C134.1 45.2882 134.892 41.72 135.709 38.1559C135.822 37.6669 135.776 37.3477 135.189 37.2143" fill="#142E79"></path><path d="M70.5452 36.1068C70.4835 36.0698 70.4154 36.0438 70.3441 36.03C65.43 36.03 60.5131 36.03 55.5935 36.03C55.3959 36.0092 55.1973 36.059 55.0353 36.17C54.8732 36.2809 54.7589 36.4453 54.714 36.6321C54.3705 37.5211 53.981 38.394 53.6167 39.2749C50.4197 47.0012 47.2227 54.7262 44.0258 62.4499C42.6521 65.7796 41.2853 69.1107 39.9256 72.4432L39.3937 73.7201C38.9288 73.6393 39.0293 73.2554 38.9749 72.9685C38.168 68.8278 37.3652 64.6899 36.5667 60.5546C35.3773 54.4164 34.1627 48.2863 33.0109 42.1319C32.7638 40.3755 31.8371 38.7745 30.417 37.6501C28.9969 36.5258 27.1885 35.9614 25.355 36.0704C17.6362 36.1876 9.93423 36.1351 2.21966 36.1512C1.7464 36.1512 1.27314 36.1512 0.799874 36.1512C0.693213 36.1347 0.583871 36.1512 0.487553 36.1984C0.391235 36.2456 0.312896 36.3211 0.26379 36.4139C-0.238788 37.3676 -0.054509 37.808 1.00509 38.0303C1.45018 38.1833 1.91888 38.2625 2.39137 38.2647C2.56121 38.3838 2.76797 38.4436 2.97771 38.4344C2.99173 38.4581 3.01078 38.4787 3.03362 38.4948C3.05645 38.511 3.08257 38.5223 3.11024 38.528C3.13791 38.5337 3.16653 38.5337 3.19421 38.528C3.2219 38.5224 3.24802 38.5111 3.27088 38.495C3.33815 38.5553 3.4187 38.6 3.50647 38.6259C3.59425 38.6518 3.68696 38.6582 3.77765 38.6445L9.45678 40.2932L9.51542 40.3458H9.59499C9.60212 40.3676 9.61463 40.3874 9.63143 40.4035C9.64824 40.4197 9.66886 40.4316 9.69151 40.4384C9.71416 40.4451 9.73816 40.4465 9.76147 40.4423C9.78478 40.4381 9.8067 40.4286 9.82534 40.4145L10.2107 40.5478C10.6383 40.825 11.1224 41.011 11.6304 41.0933L11.9529 41.2065H11.999L12.4681 41.3924C12.5058 41.5015 12.577 41.5136 12.6691 41.4692L13.0377 41.6187C13.4624 41.9378 13.954 42.1639 14.4784 42.2814L14.8344 42.4551C14.8543 42.5103 14.8939 42.5568 14.946 42.5864C14.9982 42.616 15.0595 42.6267 15.1192 42.6168C15.1193 42.6296 15.1228 42.6422 15.1293 42.6534C15.1358 42.6645 15.1451 42.674 15.1563 42.6808C15.1676 42.6876 15.1804 42.6917 15.1937 42.6925C15.2069 42.6933 15.2202 42.6909 15.2322 42.6855L15.2532 42.7542H15.3244L15.5254 42.8875C15.6021 43.004 15.7032 43.1037 15.8222 43.1803C15.9412 43.2568 16.0755 43.3085 16.2165 43.332L17.0541 44.2251H17.0834H17.075L17.6279 45.0616C17.6106 45.1185 17.6156 45.1795 17.6418 45.2331C17.6681 45.2867 17.7138 45.3292 17.7703 45.3525L17.921 45.7202C17.921 45.7485 17.8833 45.7849 17.8917 45.8011C17.9227 45.8508 17.9577 45.8981 17.9964 45.9425L18.1095 46.3021C18.0904 46.3704 18.0921 46.4426 18.1143 46.5099C18.1366 46.5773 18.1786 46.637 18.2352 46.682C18.2193 46.8745 18.2807 47.0655 18.4069 47.2154L18.3608 47.2477L18.4362 47.2599L18.499 47.5387C18.4761 47.6453 18.4793 47.7557 18.5083 47.8609C18.5374 47.9661 18.5916 48.0634 18.6665 48.1448C18.6519 48.2242 18.656 48.3057 18.6785 48.3834C18.701 48.461 18.7412 48.5328 18.7964 48.5934C18.7736 48.6632 18.771 48.7377 18.7887 48.8088C18.8064 48.88 18.8438 48.9452 18.8969 48.9975C18.8775 49.0763 18.8769 49.1583 18.8951 49.2373C18.9132 49.3164 18.9496 49.3905 19.0016 49.4541C19.4083 51.4424 19.927 53.4079 20.5554 55.3418C20.5569 55.5841 20.6263 55.8215 20.7564 56.0288C20.7361 56.0517 20.7217 56.0789 20.7142 56.1082C20.7067 56.1375 20.7064 56.1681 20.7133 56.1975C20.7202 56.2269 20.7342 56.2544 20.754 56.2777C20.7738 56.301 20.799 56.3196 20.8276 56.3318L20.9072 56.6228C20.8812 56.7277 20.8825 56.8373 20.911 56.9416C20.9395 57.0459 20.9943 57.1419 21.0705 57.2208C21.0517 57.3961 21.0977 57.5721 21.2004 57.7179C21.1166 57.8472 21.1794 57.9482 21.259 58.0492L21.7867 60.191L21.9417 60.595C21.9315 60.6768 21.9392 60.7598 21.9645 60.8384C21.9898 60.9171 22.0319 60.9898 22.0882 61.0517C22.0617 61.119 22.0543 61.192 22.0668 61.2631C22.0793 61.3341 22.1113 61.4007 22.1594 61.4558C22.1439 61.577 22.1557 61.7001 22.194 61.8166C22.2323 61.9331 22.2962 62.0402 22.3814 62.1306L22.4903 62.5347C22.4646 62.6181 22.4616 62.7065 22.4814 62.7914C22.5012 62.8763 22.5432 62.9549 22.6034 63.0196L22.7081 63.3752C22.6878 63.4574 22.6878 63.543 22.7082 63.6252C22.7285 63.7073 22.7687 63.7837 22.8254 63.848C22.8115 63.9459 22.8185 64.0455 22.8459 64.1406C22.8733 64.2358 22.9204 64.3246 22.9845 64.4016C23.0573 65.1116 23.2379 65.8074 23.5206 66.4666C23.5051 66.6744 23.5562 66.8818 23.6672 67.0606H23.6797L23.7635 67.4202C23.7399 67.5063 23.7402 67.5968 23.7645 67.6827C23.7887 67.7685 23.8361 67.8467 23.9017 67.9092C23.8883 68.1117 23.9394 68.3134 24.0483 68.4871C23.9687 68.6042 24.0148 68.681 24.1237 68.7538C24.1108 68.9622 24.1713 69.1687 24.2954 69.3397C24.2954 69.3639 24.2493 69.4003 24.2577 69.4165C24.2828 69.466 24.3122 69.5133 24.3457 69.5579C24.3273 69.7771 24.3847 69.9959 24.509 70.1802L24.5634 70.3944C24.5508 70.618 24.6108 70.8398 24.7352 71.0288C24.7352 71.0531 24.6891 71.0854 24.6975 71.0935C24.7231 71.135 24.7525 71.1742 24.7854 71.2107C24.7713 71.4433 24.8313 71.6745 24.9571 71.8734C24.9571 71.8976 24.9069 71.93 24.9153 71.9421C24.9405 71.9876 24.97 72.0309 25.0032 72.0714L25.133 72.4755C25.1478 72.9588 25.2632 73.4343 25.4723 73.8737C25.459 74.0402 25.513 74.2053 25.6231 74.3343C25.663 74.9582 25.8191 75.5701 26.0837 76.1406L26.1759 76.472C26.1532 76.5364 26.151 76.6058 26.1697 76.6714C26.1883 76.737 26.227 76.7956 26.2806 76.8397C26.2591 77.0947 26.3302 77.349 26.4816 77.559C26.4816 77.5833 26.4356 77.6196 26.4439 77.6358C26.4673 77.6866 26.4954 77.7353 26.5277 77.7813L26.624 78.1611C26.5985 78.2448 26.5959 78.3335 26.6164 78.4185C26.637 78.5035 26.68 78.5819 26.7413 78.646C26.7283 78.8619 26.7919 79.0757 26.9214 79.2522C26.9214 79.2764 26.8711 79.3088 26.8795 79.3209C26.905 79.3663 26.9344 79.4096 26.9674 79.4502C26.9591 79.4626 26.9535 79.4764 26.9509 79.491C26.9483 79.5055 26.9487 79.5204 26.9523 79.5348C26.9558 79.5491 26.9623 79.5626 26.9714 79.5745C26.9805 79.5863 26.9919 79.5963 27.0051 79.6038C26.9779 79.7052 26.9766 79.8116 27.0014 79.9137C27.0262 80.0158 27.0763 80.1105 27.1475 80.1897C27.1369 80.4424 27.2071 80.6921 27.3486 80.9049C27.3486 80.9332 27.3067 80.9696 27.3151 80.9898C27.3427 81.0448 27.3749 81.0975 27.4114 81.1474C27.3954 81.365 27.4559 81.5813 27.5831 81.7616C27.5831 81.7859 27.537 81.8182 27.5454 81.8344C27.5708 81.8824 27.6002 81.9284 27.6334 81.9718C27.6109 82.1717 27.6711 82.3721 27.8009 82.5294C27.765 82.5956 27.7534 82.6715 27.7678 82.7448C27.7823 82.8182 27.822 82.8847 27.8805 82.9335C27.8679 83.016 27.8737 83.1001 27.8976 83.1803C27.9214 83.2604 27.9627 83.3347 28.0187 83.3982C27.9914 83.7334 28.0813 84.0678 28.2741 84.3478C28.2573 84.4478 28.2612 84.55 28.2856 84.6486C28.31 84.7471 28.3546 84.8399 28.4165 84.9217C28.4165 84.95 28.3747 84.9904 28.3872 85.0106C28.419 85.0659 28.4554 85.1186 28.4961 85.1682C28.4732 85.3613 28.5254 85.5557 28.6427 85.7137C28.6104 86.1174 28.7116 86.5206 28.9317 86.8654C28.9188 87.0764 28.9761 87.2859 29.095 87.4634C29.0604 87.5106 29.0451 87.5685 29.0521 87.626C29.059 87.6834 29.0878 87.7364 29.1327 87.7746C29.109 87.8587 29.1057 87.9469 29.1231 88.0324C29.1406 88.118 29.1783 88.1984 29.2332 88.2676C29.2584 88.3686 29.2332 88.4898 29.3673 88.5424C29.3587 88.7359 29.4145 88.9271 29.5264 89.0879C29.4903 89.1543 29.4789 89.2307 29.4941 89.3043C29.5094 89.3778 29.5503 89.4441 29.6102 89.492C29.6019 89.6836 29.6594 89.8725 29.7735 90.0294C29.7735 90.0294 29.7233 90.0779 29.7316 90.086C29.755 90.1169 29.7817 90.1454 29.8112 90.1709L29.9327 90.6235C29.8939 90.6907 29.8827 90.7696 29.9013 90.8444C29.9199 90.9192 29.967 90.9846 30.0332 91.0276C30.0263 91.2626 30.0872 91.4948 30.2091 91.6984L30.163 91.7105L30.23 91.7347C30.2346 91.8005 30.2618 91.8628 30.3073 91.9119C30.3529 91.9609 30.4141 91.9939 30.4813 92.0055C30.6111 92.1994 30.808 92.1065 30.9713 92.1065C35.2516 92.1065 39.5333 92.1065 43.8164 92.1065C44.5347 92.1695 45.2585 92.141 45.9691 92.0216C46.0419 92.0182 46.1122 91.9947 46.1716 91.9538C46.231 91.913 46.277 91.8566 46.3041 91.7913C46.775 90.852 47.1821 89.8842 47.5229 88.8939C47.7856 88.5012 47.9769 88.0679 48.0883 87.613C48.2391 87.3341 48.4066 87.0634 48.5322 86.7724L53.5078 75.4214C59.1311 62.5414 64.7627 49.6642 70.4028 36.7897C70.4949 36.5796 70.7127 36.3856 70.5368 36.1108M31.5535 91.9893L33.6475 91.9651L31.5535 91.9853" fill="#12255D"></path><path d="M24.4629 70.2448C24.4896 70.2931 24.5206 70.339 24.5556 70.3821L24.5008 70.168C24.5008 70.1922 24.4545 70.2286 24.4629 70.2448Z" fill="#12255D"></path><path d="M11.9958 41.2148H11.9487L11.9744 41.2714V41.227" fill="#12255D"></path><path d="M163.509 51.3301C163.735 52.2837 163.928 53.0919 164.121 53.9082C165.338 59.5656 166.547 65.235 167.748 70.9166C168.016 72.1653 168.012 72.1532 166.73 72.1532H156.574C155.518 72.1532 155.493 72.1249 155.862 71.147C158.316 64.6545 160.777 58.1633 163.246 51.6736C163.322 51.5538 163.409 51.4403 163.505 51.3341" fill="#FEFEFF"></path><path d="M174.332 37.1216C174.131 36.3376 174.273 35.9942 173.075 35.9942H161.386C160.693 35.9925 160.003 36.0781 159.334 36.2487C158.251 36.5383 157.258 37.0794 156.442 37.8246C155.625 38.5699 155.011 39.4967 154.652 40.5241C152.826 44.8075 150.953 49.0748 149.085 53.342C143.87 65.2413 138.651 77.1393 133.43 89.0359C133.011 89.9613 132.639 90.8988 132.211 91.905C133.475 92.0103 134.743 92.0386 136.01 91.9898C139.65 91.9898 143.293 91.9898 146.933 91.9898C147.511 91.9898 147.946 91.9616 148.189 91.2867C149.09 88.7571 150.07 86.2557 151.02 83.7463L151.2 83.5766H151.247C151.309 83.4634 151.385 83.4472 151.477 83.5483C152.714 83.6362 153.955 83.6362 155.192 83.5483C155.251 83.5834 155.321 83.5975 155.39 83.5879C155.459 83.5783 155.522 83.5457 155.569 83.4957C155.61 83.5338 155.662 83.5583 155.719 83.5655C155.775 83.5728 155.833 83.5625 155.883 83.5361C155.976 83.5752 156.077 83.5953 156.178 83.5953C156.28 83.5953 156.38 83.5752 156.473 83.5361C156.556 83.5773 156.651 83.5924 156.743 83.5794C156.835 83.5663 156.921 83.5258 156.988 83.4634C157.012 83.5002 157.045 83.5309 157.084 83.5532C157.123 83.5754 157.166 83.5884 157.211 83.5911C157.256 83.5939 157.301 83.5863 157.343 83.569C157.384 83.5517 157.421 83.5252 157.449 83.4917H157.487C157.526 83.5346 157.58 83.5624 157.638 83.5699C157.697 83.5773 157.756 83.5639 157.805 83.5321H158.044C158.102 83.5633 158.166 83.5796 158.232 83.5796C158.298 83.5796 158.363 83.5633 158.421 83.5321C158.731 83.6207 159.061 83.6207 159.372 83.5321C159.428 83.5629 159.493 83.5791 159.558 83.5791C159.623 83.5791 159.687 83.5629 159.744 83.5321C160.476 83.6178 161.216 83.6178 161.947 83.5321C162.02 83.5664 162.099 83.5842 162.18 83.5842C162.26 83.5842 162.34 83.5664 162.412 83.5321C165.03 83.621 167.647 83.5887 170.265 83.5644C170.408 83.7686 170.504 84.0001 170.546 84.2433C171.015 86.4456 171.5 88.6399 171.965 90.8422C172.204 91.9818 172.183 91.9898 173.326 91.9939H181.284C182.633 91.9939 183.977 91.9656 185.326 91.9939C185.866 91.9939 186.059 91.7999 185.92 91.2948C185.874 91.1251 185.853 90.9513 185.816 90.7776C184.609 85.0663 183.403 79.3551 182.197 73.6439C180.7 66.6395 179.193 59.6352 177.674 52.6308C177.067 49.8021 176.535 46.9735 175.806 44.1933C175.462 42.0112 174.901 39.8816 174.461 37.7277M148.269 77.3737C148.227 77.3737 148.151 77.3292 148.093 77.305C148.118 77.2444 148.135 77.1555 148.177 77.1393C148.219 77.1231 148.294 77.1797 148.357 77.2039C148.332 77.2646 148.315 77.3535 148.273 77.3696M166.734 72.1447H156.578C155.523 72.1447 155.493 72.1164 155.866 71.1385C158.32 64.646 160.782 58.1548 163.25 51.665C163.326 51.5451 163.413 51.4316 163.509 51.3256C163.736 52.2793 163.928 53.0875 164.121 53.9037C165.338 59.5611 166.547 65.2306 167.748 70.9122C168.016 72.1608 168.012 72.1487 166.73 72.1487" fill="#0A3192"></path><path d="M148.348 77.2083C148.323 77.2689 148.306 77.3578 148.265 77.3739C148.223 77.3901 148.147 77.3295 148.084 77.3053C148.11 77.2446 148.126 77.1557 148.168 77.1396C148.21 77.1234 148.285 77.18 148.348 77.2083Z" fill="#0F3A90"></path><path d="M91.2346 36.011H89.0483C85.4186 36.011 81.7777 36.011 78.1256 36.011C77.2587 36.011 77.2503 36.011 77.0535 36.8192C76.791 37.9129 76.5369 39.0094 76.2912 40.1085C74.1524 49.6129 72.0137 59.1172 69.875 68.6216C68.1997 76.1001 66.5077 83.5785 64.799 91.057C64.5979 91.9905 64.5979 91.9986 65.5528 92.0026H72.1073H78.6617C79.6208 92.0026 79.625 92.0026 79.8386 91.0489C80.6064 87.6896 81.3729 84.3221 82.1379 80.9465C84.8881 68.7671 87.6356 56.5876 90.3802 44.4081C90.9372 41.935 91.4817 39.462 92.0554 36.9929C92.2774 36.015 92.3319 35.9827 91.2429 35.9746" fill="#0F215F"></path></g></g><g clip-path="url(#clip1_1172_142)"><mask id="mask1_1172_142" style="mask-type:luminance" maskUnits="userSpaceOnUse" x="255" y="0" width="155" height="120"><path d="M410 0H255V120H410V0Z" fill="white"></path></mask><g mask="url(#mask1_1172_142)"><path d="M332.459 85.8051C330.626 87.2736 328.665 88.5777 326.599 89.702C321.257 92.7128 315.367 94.6438 309.269 95.3835C300.684 96.4694 291.963 95.234 284.028 91.8079C276.093 88.3817 269.238 82.8922 264.189 75.9197C259.829 69.9234 256.919 63.0117 255.685 55.7203C254.45 48.4288 254.925 40.9533 257.071 33.8731C258.917 27.6554 262.059 21.8918 266.294 16.9553C273.414 8.38132 283.405 2.63376 294.443 0.762123C304.325 -1.02116 314.522 0.351857 323.566 4.68353C326.745 6.20881 329.752 8.06389 332.537 10.2177L332.475 10.3814C332.297 10.3846 332.128 10.4549 332.001 10.5779C330.763 11.6708 329.5 12.7024 328.357 13.8731C327.214 15.0437 326.158 16.2881 325.11 17.557C323.752 19.2354 322.492 20.9888 321.334 22.8088C320.645 23.8567 320.133 24.9905 319.535 26.0834C318.611 27.8958 317.8 29.7632 317.109 31.6749C316.643 32.8661 316.337 34.1309 315.978 35.3589C315.78 36.0261 315.615 36.7056 315.483 37.4056C315.15 38.9662 314.9 40.5429 314.732 42.1293C314.557 43.3352 314.453 44.5503 314.423 45.7683C314.342 47.984 314.397 50.2026 314.588 52.4117C314.765 53.5865 314.802 54.7941 315.025 55.9525C315.332 57.7517 315.756 59.5293 316.296 61.2738C316.828 62.9111 317.332 64.5239 317.946 66.1244C318.759 68.1478 319.724 70.1072 320.835 71.986C321.902 73.8262 323.094 75.5918 324.404 77.2705C325.734 78.9696 327.154 80.597 328.658 82.1457C329.219 82.7392 329.929 83.1772 330.49 83.783C330.878 84.2224 331.317 84.6141 331.798 84.9496C331.972 85.0336 332.122 85.1565 332.239 85.3086C332.356 85.4607 332.435 85.6377 332.471 85.8256" fill="#FE3423"></path><path d="M332.462 85.8055C332.427 85.6177 332.347 85.4407 332.231 85.2886C332.114 85.1365 331.963 85.0136 331.79 84.9296C331.308 84.5927 330.869 84.1997 330.482 83.7589C329.925 83.1531 329.215 82.7151 328.65 82.1216C327.141 80.5731 325.717 78.9457 324.383 77.2464C323.073 75.5677 321.881 73.8021 320.814 71.9619C319.704 70.083 318.738 68.1236 317.926 66.1003C317.327 64.4998 316.82 62.8706 316.275 61.2497C315.735 59.5052 315.311 57.7276 315.004 55.9283C314.781 54.7617 314.74 53.5624 314.567 52.3876C314.376 50.1785 314.321 47.9599 314.402 45.7441C314.433 44.5262 314.536 43.3111 314.711 42.1052C314.879 40.5188 315.129 38.9421 315.462 37.3815C315.598 36.6979 315.768 36.0225 315.957 35.3348C316.312 34.1068 316.622 32.8583 317.084 31.6508C317.775 29.739 318.586 27.8716 319.51 26.0593C320.108 24.9623 320.624 23.8162 321.309 22.7847C322.467 20.9647 323.727 19.2113 325.085 17.5329C326.133 16.2763 327.193 15.0278 328.332 13.8489C329.471 12.6701 330.754 11.6467 331.976 10.5538C332.103 10.4307 332.273 10.3605 332.45 10.3573C332.801 10.3246 332.97 10.738 333.321 10.7052C333.415 10.8544 333.528 10.9918 333.655 11.1146C334.553 11.8187 335.413 12.5703 336.23 13.3659C337.125 14.2091 337.967 15.1015 338.792 16.0184C340.146 17.5505 341.415 19.1547 342.593 20.824C344.48 23.5122 346.071 26.3941 347.338 29.42C347.833 30.5743 348.316 31.7368 348.691 32.9279C349.338 34.9203 349.86 36.9503 350.255 39.0065C350.651 41.0325 350.895 43.0848 350.985 45.1465C351.191 48.8735 350.981 52.6115 350.358 56.2926C349.946 58.5563 349.36 60.7707 348.737 62.9852C348.448 64.029 347.911 64.9705 347.573 66.0061C347.176 67.227 346.659 68.4061 346.03 69.5264C345.414 70.7512 344.735 71.9439 343.995 73.0998C343.315 74.0782 342.729 75.122 342.027 76.0757C341.272 77.1113 340.443 78.0937 339.626 79.0843C338.47 80.4842 337.15 81.7327 335.912 83.063C335.851 83.1257 335.78 83.1782 335.702 83.2186C335.051 83.62 334.482 84.1377 334.022 84.7454C333.565 84.9957 333.148 85.3115 332.784 85.6827L332.438 85.8055" fill="#FF5815"></path><path d="M332.805 85.6823C333.169 85.3108 333.586 84.9949 334.043 84.7449C334.198 85.1459 334.473 85.4905 334.83 85.7332C335.188 85.9759 335.611 86.1052 336.044 86.1039C336.169 86.0746 336.299 86.0776 336.422 86.1128C336.544 86.1479 336.656 86.2139 336.746 86.3045C337.084 86.636 337.327 86.5255 337.6 86.1653C337.946 85.7068 338.425 85.7559 338.565 86.3004C338.673 86.7097 339.011 87.0576 338.999 87.5284C338.986 87.9991 339.279 88.1424 339.692 88.1137C340.122 88.1069 340.538 88.2636 340.855 88.5517C341.738 89.1862 342.704 89.8288 343.88 89.1207C343.939 89.079 344.009 89.0536 344.081 89.0471C344.154 89.0407 344.227 89.0533 344.293 89.0838C344.462 89.178 344.742 89.1248 344.784 89.3867C344.825 89.6487 344.639 89.7961 344.371 89.8534C344.103 89.9107 343.88 89.9639 343.991 90.2873C344.103 90.6106 344.218 90.9094 344.635 90.9054C344.709 90.9147 344.784 90.8969 344.845 90.8555C344.907 90.814 344.951 90.7517 344.969 90.6802C344.983 90.5655 345.011 90.4528 345.052 90.3446C345.337 89.837 345.786 89.8288 346.05 90.3446C346.164 90.5388 346.347 90.6846 346.562 90.7539C347.313 91.1141 348.213 91.2124 348.733 91.9819C348.762 92.0332 348.809 92.0724 348.865 92.0926C348.921 92.1128 348.982 92.1128 349.038 92.0924C349.219 92.031 349.207 91.8959 349.191 91.7363C349.125 90.9668 349.125 90.9627 349.851 90.9176C350.085 90.939 350.321 90.886 350.523 90.7662C350.684 90.6393 350.886 90.4633 351.06 90.6679C351.233 90.8726 350.94 91.0118 350.858 91.1837C350.775 91.3403 350.637 91.4613 350.47 91.5234C350.406 91.5424 350.346 91.5741 350.295 91.6164C350.244 91.6587 350.202 91.7109 350.171 91.7698C350.141 91.8286 350.123 91.893 350.118 91.959C350.113 92.025 350.122 92.0913 350.144 92.1538C350.168 92.3146 350.256 92.4593 350.387 92.5566C350.518 92.6539 350.683 92.696 350.845 92.6737C351.44 92.6334 352.032 92.7763 352.541 93.083C353.338 93.509 354.206 93.7864 355.104 93.9017C355.933 94.0794 356.777 94.1794 357.625 94.2005C358.248 94.2291 358.887 94.1677 359.523 94.2496C359.659 94.2496 359.799 94.1677 359.935 94.1432C360.104 94.0949 360.282 94.0851 360.455 94.1145C361.145 94.27 361.855 94.321 362.56 94.266C362.825 94.2524 363.091 94.2786 363.348 94.3438C363.774 94.4549 364.222 94.4549 364.648 94.3438C365.341 94.2291 366.051 93.8034 366.748 94.3929C366.813 94.4201 366.883 94.4341 366.954 94.4341C367.025 94.4341 367.095 94.4201 367.161 94.3929C367.589 94.2983 368.026 94.2394 368.464 94.2169C368.906 94.1432 369.426 94.18 369.731 93.7298C369.78 93.6562 369.854 93.6025 369.94 93.5784C370.025 93.5544 370.117 93.5616 370.198 93.5988C371.179 93.7913 372.194 93.735 373.148 93.435C374.715 93.0659 376.252 92.5844 377.749 91.9942C378.421 91.7568 379.296 91.8468 379.68 91.0036C379.717 90.9217 379.952 90.9381 380.092 90.889C381.01 90.732 381.898 90.4365 382.725 90.013C383.381 89.5095 384.182 89.3212 384.862 88.8792C385.688 88.347 386.781 88.2201 387.272 87.2132C387.317 87.1429 387.388 87.093 387.47 87.074C388.603 86.6693 389.643 86.0429 390.528 85.232C391.061 84.9302 391.555 84.566 392.001 84.1473C392.88 83.2304 393.887 82.4363 394.852 81.6053C395.265 81.2615 395.756 80.9954 395.871 80.451C395.963 80.1486 396.132 79.875 396.362 79.6569C396.816 79.1043 397.6 78.8628 397.823 78.081C397.823 78.0155 397.955 77.9745 398.021 77.9336C399.031 77.189 399.859 76.2277 400.443 75.1215C400.966 74.2507 401.553 73.4202 402.201 72.6368C402.404 72.4678 402.548 72.2403 402.614 71.986C402.748 71.4162 403.004 70.8816 403.365 70.4182C403.625 70.1426 403.842 69.8293 404.008 69.4891C404.086 68.6575 404.449 67.8774 405.036 67.2787C405.076 66.6957 405.265 66.1324 405.585 65.6413C405.919 64.3768 406.365 63.144 406.917 61.9573C406.986 61.8606 407.021 61.7441 407.016 61.6258C406.913 60.9013 407.384 60.3609 407.606 59.7428C407.685 59.5218 407.866 59.3335 407.883 59.1043C407.994 57.7167 408.551 56.415 408.683 55.011C408.971 53.2044 409.122 51.3793 409.137 49.5505C409.137 49.1657 409.364 48.8423 409.253 48.433C409.068 47.7533 409.078 47.0361 409.282 46.3618C409.338 46.2411 409.367 46.1098 409.367 45.977C409.367 45.8442 409.338 45.7129 409.282 45.5922C408.754 44.9127 409.059 44.1268 409.034 43.4228C408.983 42.3918 408.834 41.368 408.589 40.365C408.5 39.6739 408.362 38.99 408.176 38.3184C408.052 37.9909 408.197 37.5938 408.052 37.1722C407.884 36.4407 407.605 35.7384 407.227 35.0887C407.169 35.0069 407.198 34.8595 407.194 34.7449C407.111 33.7314 406.864 32.7377 406.464 31.8018C406.158 30.9831 405.873 30.1645 405.514 29.4072C405.155 28.6499 404.896 27.8804 404.516 27.1804C404.004 26.2512 403.406 25.3466 402.886 24.4011C402.713 24.0818 402.37 23.9303 402.255 23.5824C401.812 22.5157 401.236 21.5089 400.538 20.5861C400.187 20.0458 399.68 19.5832 399.3 19.0265C399.073 18.6204 398.796 18.2437 398.475 17.9049C397.307 16.8489 396.387 15.5717 395.31 14.4338C394.761 13.8566 394.047 13.5005 393.528 12.8947C392.875 11.9648 391.975 11.2324 390.928 10.7785C390.797 10.7094 390.685 10.6097 390.602 10.4878C389.466 9.49334 388.256 8.5848 386.983 7.76986C386.828 7.63247 386.63 7.55287 386.422 7.54473C386.348 7.54689 386.275 7.52943 386.211 7.49416C386.146 7.45888 386.092 7.40709 386.055 7.34416C385.969 7.15658 385.834 6.99511 385.665 6.87639C385.495 6.75767 385.296 6.686 385.089 6.66876C384.425 6.46982 383.812 6.13204 383.29 5.67817C383.241 5.64543 383.204 5.58812 383.15 5.57584C382.069 5.28112 381.161 4.59753 380.109 4.23732C379.251 3.9426 378.388 3.65198 377.567 3.27948C376.828 2.93611 376.055 2.66997 375.26 2.48538C374.32 2.15407 373.336 1.95967 372.339 1.90822C372.28 1.90239 372.223 1.88122 372.174 1.84682C371.625 1.54801 370.936 1.65034 370.429 1.43749C369.81 1.27563 369.17 1.20935 368.53 1.24101C368.131 1.26256 367.731 1.2183 367.346 1.11002C366.826 0.8767 366.302 0.516487 365.72 0.991313C365.675 1.02815 365.547 0.991313 365.469 0.958566C364.745 0.752445 363.991 0.677564 363.241 0.737526C361.953 0.639286 360.637 0.737526 359.354 0.700686C358.07 0.663846 356.841 1.11002 355.553 1.18779C354.421 1.30411 353.303 1.53033 352.215 1.86319C351.235 2.14573 350.231 2.34026 349.215 2.44444C348.806 2.4923 348.414 2.63232 348.068 2.85378C347.821 3.00445 347.551 3.1137 347.268 3.17715C346.36 3.35394 345.476 3.637 344.635 4.02038C343.247 4.44107 341.956 5.12811 340.835 6.04248C340.802 6.07158 340.763 6.09382 340.721 6.10789C340.68 6.12195 340.635 6.12755 340.591 6.12435C339.812 6.05476 339.271 6.58689 338.673 6.91845C336.828 7.9295 335.289 9.41129 333.42 10.3978C333.308 10.4551 333.292 10.5943 333.28 10.7048C332.929 10.7375 332.76 10.3241 332.413 10.3568L332.475 10.1931C340.031 4.2952 349.212 0.806272 358.806 0.185917C368.401 -0.434439 377.96 1.84287 386.224 6.71788C392.651 10.4803 398.112 15.6697 402.177 21.8784C406.242 28.0872 408.8 35.1462 409.651 42.5012C410.503 49.8561 409.623 57.3067 407.083 64.2678C404.542 71.2289 400.409 77.5109 395.009 82.6205C389.314 88.0091 382.365 91.9184 374.779 94.0007C367.194 96.0831 359.208 96.2741 351.53 94.5566C344.985 93.0937 338.832 90.256 333.486 86.2349C333.251 86.0589 333.028 85.8665 332.801 85.6864" fill="#FEA016"></path><path d="M265.901 108.184C266.401 107.869 266.826 107.623 267.23 107.365C268.107 106.725 269.192 106.429 270.276 106.536C271.359 106.642 272.365 107.144 273.098 107.943C273.366 108.164 273.539 108.602 273.877 108.598C274.216 108.593 274.381 108.16 274.616 107.914C275.229 107.31 275.987 106.871 276.818 106.639C277.65 106.407 278.528 106.39 279.368 106.588C280.208 106.787 280.983 107.196 281.62 107.775C282.256 108.355 282.733 109.086 283.005 109.899C283.108 110.235 283.158 110.584 283.153 110.935C283.153 113.477 283.153 116.019 283.153 118.561C283.153 119.293 283.153 119.293 282.435 119.302C281.965 119.302 281.495 119.302 281.02 119.302C280.682 119.302 280.558 119.167 280.562 118.827C280.562 117.861 280.562 116.899 280.562 115.933C280.562 114.59 280.562 113.244 280.562 111.901C280.644 111.283 280.484 110.657 280.115 110.153C279.746 109.649 279.195 109.304 278.577 109.191C277.877 108.992 277.131 109.025 276.452 109.285C275.773 109.545 275.198 110.018 274.814 110.632C274.624 111.029 274.538 111.466 274.562 111.905C274.562 113.923 274.562 115.937 274.562 117.955V118.655C274.538 119.298 274.538 119.306 273.931 119.318C273.432 119.318 272.932 119.297 272.429 119.318C271.926 119.338 271.818 119.154 271.831 118.704C271.831 116.481 271.831 114.263 271.831 112.04C271.851 111.602 271.797 111.163 271.67 110.742C271.514 110.235 271.202 109.79 270.777 109.469C270.352 109.148 269.835 108.968 269.301 108.954C268.887 108.922 268.47 108.949 268.063 109.036C267.428 109.135 266.854 109.468 266.454 109.967C266.053 110.467 265.856 111.097 265.901 111.733C265.901 113.894 265.926 116.056 265.943 118.217V118.917C265.943 119.15 265.872 119.326 265.6 119.326H263.566C263.347 119.326 263.252 119.199 263.244 118.999C263.236 118.798 263.244 118.647 263.244 118.471C263.244 114.847 263.233 111.223 263.211 107.599C263.211 106.829 263.211 106.829 263.966 106.805H264.494C265.806 106.805 265.806 106.805 265.914 108.217" fill="#232222"></path><path d="M399.672 118.097C399.185 118.387 398.818 118.617 398.434 118.834C397.744 119.23 396.979 119.483 396.187 119.578C395.395 119.673 394.591 119.607 393.826 119.384C393.06 119.161 392.348 118.786 391.733 118.282C391.118 117.778 390.612 117.155 390.247 116.451C389.545 115.289 389.206 113.947 389.273 112.593C389.341 111.24 389.812 109.937 390.627 108.85C391.073 108.175 391.658 107.603 392.345 107.172C393.032 106.741 393.804 106.46 394.61 106.35C395.415 106.239 396.235 106.301 397.014 106.531C397.793 106.761 398.514 107.154 399.127 107.683C399.255 107.79 399.325 107.986 399.54 107.998C399.825 107.863 399.725 107.589 399.73 107.384C399.73 105.78 399.759 104.171 399.775 102.567C399.775 101.682 399.775 101.683 400.703 101.662H401.673C402.42 101.662 402.436 101.662 402.432 102.456C402.416 107.829 402.397 113.203 402.375 118.576C402.375 119.186 402.375 119.194 401.751 119.21C401.31 119.21 400.868 119.21 400.427 119.21C399.763 119.21 399.763 119.21 399.721 118.543C399.721 118.432 399.721 118.322 399.68 118.093M399.936 112.992C399.93 112.729 399.91 112.467 399.874 112.206C399.771 111.494 399.47 110.825 399.006 110.272C398.542 109.719 397.933 109.305 397.246 109.075C396.606 108.838 395.911 108.79 395.244 108.935C394.578 109.08 393.967 109.413 393.487 109.894C392.769 110.573 392.3 111.469 392.15 112.441C392.001 113.414 392.181 114.408 392.661 115.268C392.94 115.775 393.333 116.211 393.809 116.543C394.284 116.875 394.83 117.095 395.405 117.185C395.98 117.275 396.568 117.234 397.124 117.063C397.679 116.893 398.188 116.598 398.611 116.201C399.061 115.8 399.415 115.304 399.646 114.749C399.878 114.195 399.981 113.596 399.948 112.996" fill="#232222"></path><path d="M373.998 108.077C374.258 107.795 374.151 107.484 374.159 107.218C374.159 106.857 374.295 106.686 374.679 106.698C375.178 106.698 375.682 106.698 376.181 106.698C376.804 106.698 376.825 106.698 376.829 107.345V111.724C376.829 114.004 376.808 116.288 376.783 118.56C376.783 119.24 376.759 119.244 376.111 119.26C375.669 119.26 375.228 119.26 374.786 119.26C374.345 119.26 374.068 119.109 374.118 118.609C374.113 118.482 374.095 118.356 374.064 118.233C373.664 118.332 373.291 118.519 372.975 118.781C371.708 119.556 370.19 119.82 368.733 119.521C367.275 119.222 365.988 118.382 365.135 117.173C364.043 115.716 363.562 113.896 363.792 112.095C364.023 110.294 364.948 108.652 366.373 107.512C367.341 106.755 368.535 106.337 369.768 106.323C371.001 106.309 372.204 106.7 373.189 107.435C373.466 107.631 373.742 107.844 374.015 108.061M370.437 117.238C370.968 117.278 371.5 117.169 371.972 116.923C372.565 116.628 373.082 116.204 373.486 115.682C373.889 115.16 374.168 114.554 374.301 113.91C374.434 113.265 374.418 112.599 374.254 111.962C374.09 111.325 373.782 110.733 373.354 110.23C373.026 109.845 372.622 109.53 372.168 109.303C371.713 109.077 371.217 108.944 370.709 108.913C370.202 108.881 369.693 108.952 369.214 109.121C368.734 109.29 368.294 109.553 367.92 109.895C367.142 110.581 366.643 111.526 366.517 112.551C366.42 113.12 366.448 113.704 366.599 114.261C366.75 114.819 367.021 115.337 367.392 115.781C367.763 116.226 368.227 116.586 368.751 116.836C369.275 117.087 369.847 117.223 370.429 117.234" fill="#232222"></path><path d="M296.106 108.237C296.145 108.118 296.175 107.996 296.197 107.872C296.242 106.792 296.242 106.751 297.368 106.779C299.155 106.825 298.87 106.481 298.879 108.224C298.879 111.499 298.879 114.774 298.879 118.048C298.879 118.282 298.858 118.519 298.879 118.748C298.912 119.158 298.776 119.342 298.334 119.317C297.893 119.293 297.393 119.317 296.919 119.317C296.263 119.317 296.263 119.317 296.209 118.638C296.209 118.527 296.184 118.413 296.168 118.265C295.768 118.381 295.397 118.577 295.078 118.842C294.05 119.486 292.842 119.788 291.629 119.704C290.416 119.621 289.261 119.157 288.332 118.38C286.972 117.293 286.075 115.737 285.821 114.023C285.566 112.309 285.972 110.563 286.958 109.133C287.39 108.423 287.975 107.816 288.671 107.355C289.366 106.894 290.156 106.59 290.983 106.466C291.81 106.342 292.654 106.4 293.456 106.636C294.258 106.872 294.998 107.28 295.623 107.831C295.755 107.942 295.887 108.052 296.11 108.241M288.563 113.267C288.552 113.811 288.652 114.351 288.856 114.856C289.051 115.369 289.354 115.835 289.746 116.222C290.137 116.609 290.608 116.909 291.126 117.1C291.644 117.292 292.197 117.371 292.749 117.333C293.3 117.294 293.837 117.139 294.323 116.878C295.258 116.332 295.954 115.459 296.273 114.43C296.592 113.402 296.512 112.292 296.048 111.319C295.764 110.622 295.275 110.026 294.645 109.608C294.016 109.19 293.274 108.969 292.516 108.974C291.968 108.985 291.428 109.107 290.929 109.331C290.43 109.556 289.983 109.879 289.613 110.28C289.244 110.682 288.961 111.154 288.781 111.667C288.601 112.181 288.524 112.725 288.563 113.267Z" fill="#232222"></path><path d="M334.456 114.061H330.478C329.975 114.061 329.913 114.155 330.003 114.617C330.098 115.09 330.292 115.538 330.572 115.933C330.852 116.327 331.212 116.659 331.629 116.907C332.046 117.155 332.511 117.313 332.993 117.372C333.476 117.431 333.966 117.389 334.431 117.249C335.312 117.09 336.153 116.76 336.907 116.279C337.187 116.062 337.46 116.14 337.526 116.447C337.693 116.9 337.947 117.317 338.273 117.675C338.462 117.97 338.471 118.228 338.112 118.387C337.014 119.004 335.843 119.482 334.625 119.808C333.764 119.995 332.872 120.003 332.008 119.83C331.144 119.657 330.325 119.308 329.605 118.803C328.884 118.299 328.277 117.652 327.823 116.902C327.369 116.153 327.077 115.317 326.966 114.449C326.737 113.327 326.799 112.165 327.147 111.073C327.495 109.981 328.117 108.995 328.955 108.207C329.927 107.323 331.147 106.753 332.453 106.573C333.759 106.393 335.089 106.612 336.267 107.2C336.966 107.612 337.567 108.168 338.031 108.83C338.494 109.493 338.809 110.246 338.953 111.04C339.117 111.848 339.192 112.671 339.176 113.496C339.176 113.905 339.04 114.061 338.619 114.056C337.233 114.056 335.85 114.056 334.468 114.056L334.456 114.061ZM333.218 112.092H336.044C336.457 112.092 336.544 111.932 336.457 111.547C336.391 111.006 336.169 110.496 335.817 110.078C335.464 109.66 334.997 109.353 334.472 109.194C333.625 108.926 332.713 108.938 331.873 109.226C331.362 109.382 330.908 109.684 330.569 110.094C330.23 110.503 330.021 111.003 329.966 111.531C329.9 111.94 330.024 112.112 330.478 112.096C331.39 112.063 332.302 112.096 333.214 112.096" fill="#232222"></path><path d="M307.288 119.723C305.528 119.746 303.797 119.282 302.287 118.385C301.734 118.09 301.747 118.069 302.089 117.521C302.815 116.33 302.811 116.33 304.152 116.788C305.432 117.332 306.843 117.501 308.217 117.275C308.594 117.208 308.96 117.087 309.302 116.915C309.509 116.835 309.688 116.696 309.818 116.517C309.948 116.337 310.022 116.125 310.032 115.904C310.032 115.413 309.661 115.188 309.294 115.007C308.623 114.703 307.909 114.506 307.177 114.422C306.414 114.349 305.659 114.212 304.92 114.013C304.416 113.888 303.945 113.659 303.538 113.34C303.13 113.021 302.796 112.62 302.556 112.164C302.317 111.707 302.178 111.205 302.148 110.691C302.119 110.178 302.2 109.663 302.386 109.183C302.572 108.703 302.856 108.267 303.22 107.901C303.583 107.535 304.018 107.246 304.499 107.054C306.061 106.318 307.851 106.217 309.487 106.772C310.387 107.047 311.272 107.369 312.137 107.738C312.508 107.906 312.549 108.082 312.326 108.401C312.068 108.757 311.833 109.129 311.621 109.514C311.593 109.597 311.546 109.672 311.484 109.735C311.422 109.797 311.347 109.844 311.264 109.874C311.181 109.903 311.092 109.913 311.005 109.903C310.917 109.893 310.833 109.864 310.758 109.817C309.944 109.477 309.096 109.22 308.229 109.052C307.538 108.885 306.814 108.91 306.137 109.125C305.858 109.214 305.598 109.353 305.369 109.535C305.213 109.648 305.091 109.8 305.015 109.976C304.938 110.152 304.911 110.346 304.936 110.536C304.961 110.726 305.037 110.905 305.156 111.056C305.275 111.207 305.433 111.323 305.613 111.393C306.075 111.585 306.566 111.703 307.065 111.741C308.092 111.843 309.11 112.011 310.115 112.245C310.834 112.358 311.493 112.71 311.985 113.243C312.477 113.776 312.772 114.459 312.822 115.18C312.953 116.012 312.79 116.864 312.36 117.591C311.929 118.318 311.258 118.875 310.461 119.166C310.024 119.34 309.573 119.477 309.112 119.576C308.515 119.695 307.905 119.742 307.296 119.715" fill="#232222"></path><path d="M317.266 113.043C317.266 112.02 317.266 110.996 317.266 109.977C317.266 109.568 317.171 109.359 316.725 109.408C316.548 109.418 316.37 109.418 316.193 109.408C314.914 109.408 314.914 109.408 314.914 108.094C314.914 106.78 314.914 106.813 316.213 106.797C317.414 106.797 317.253 106.895 317.27 105.773C317.27 105.073 317.27 104.373 317.27 103.669C317.27 103.305 317.377 103.129 317.769 103.141C318.417 103.141 319.065 103.162 319.712 103.141C320.125 103.141 320.208 103.342 320.208 103.686C320.208 104.533 320.232 105.38 320.208 106.223C320.208 106.633 320.356 106.797 320.765 106.797H323.855C324.598 106.797 324.606 106.797 324.619 107.582C324.619 108.02 324.619 108.458 324.619 108.892C324.619 109.326 324.462 109.412 324.09 109.404C323.031 109.39 321.971 109.39 320.909 109.404C320.237 109.404 320.216 109.404 320.208 110.075C320.191 111.915 320.191 113.754 320.208 115.593C320.181 115.902 320.267 116.211 320.451 116.462C320.634 116.714 320.902 116.892 321.206 116.964C321.622 117.115 322.066 117.173 322.507 117.136C322.949 117.098 323.376 116.966 323.76 116.747C324.404 116.404 324.421 116.42 324.676 117.067L325.279 118.618C325.378 118.864 325.427 119.06 325.106 119.175C323.762 119.782 322.287 120.049 320.814 119.953C319.832 119.865 318.921 119.41 318.264 118.68C317.608 117.95 317.255 117.001 317.278 116.023C317.241 115.032 317.278 114.038 317.278 113.047L317.266 113.043Z" fill="#232222"></path><path d="M360.872 110.32C360.049 109.533 358.95 109.093 357.807 109.092C356.946 109.021 356.088 109.26 355.39 109.764C354.692 110.268 354.199 111.004 354.002 111.839C353.8 112.452 353.732 113.101 353.803 113.743C353.874 114.385 354.083 115.004 354.415 115.559C354.837 116.253 355.481 116.787 356.244 117.077C357.008 117.366 357.847 117.394 358.628 117.156C359.278 116.964 359.893 116.668 360.447 116.28C360.773 116.051 360.947 116.108 361.108 116.476C361.343 117.013 361.615 117.528 361.892 118.048C362.053 118.355 361.954 118.519 361.669 118.674C360.853 119.172 359.945 119.504 358.998 119.651C358.052 119.798 357.086 119.758 356.155 119.532C355.225 119.306 354.348 118.9 353.577 118.336C352.806 117.772 352.155 117.062 351.663 116.247C350.873 114.831 350.628 113.179 350.975 111.598C351.321 110.017 352.234 108.614 353.544 107.651C354.798 106.896 356.239 106.5 357.706 106.508C359.173 106.516 360.609 106.927 361.854 107.696C362.152 107.872 362.181 108.044 362.007 108.33C361.628 108.953 361.277 109.591 360.868 110.316" fill="#232222"></path><path d="M383.101 108.097C383.785 107.617 384.495 107.175 385.23 106.775C386.077 106.341 387.062 106.253 387.974 106.529C388.345 106.619 388.56 106.771 388.387 107.201C388.176 107.712 387.974 108.236 387.809 108.764C387.697 109.1 387.524 109.12 387.211 109.018C386.361 108.74 385.437 108.791 384.623 109.161C384.147 109.331 383.737 109.646 383.452 110.06C383.167 110.475 383.021 110.968 383.035 111.47C383.035 113.693 383.035 115.911 383.035 118.134C383.035 118.367 383.035 118.6 383.035 118.834C383.035 119.067 382.944 119.243 382.68 119.243H380.736C380.349 119.243 380.324 118.985 380.324 118.707V116.337C380.324 113.474 380.338 110.609 380.365 107.741C380.365 107.507 380.365 107.274 380.365 107.041C380.36 106.998 380.364 106.954 380.379 106.912C380.393 106.871 380.416 106.833 380.447 106.802C380.478 106.771 380.516 106.748 380.557 106.733C380.599 106.718 380.643 106.713 380.687 106.717C381.335 106.717 381.982 106.717 382.63 106.717C382.882 106.717 382.985 106.861 383.006 107.127C382.978 107.471 383.008 107.817 383.097 108.15" fill="#232222"></path><path d="M344.825 108.154C345.609 107.688 346.253 107.295 346.888 106.926C347.662 106.484 348.575 106.347 349.447 106.542C350.272 106.705 350.346 106.828 350.074 107.581C350.012 107.745 349.933 107.901 349.876 108.064C349.793 108.43 349.642 108.777 349.43 109.088C349.162 109.35 348.807 108.916 348.444 108.936C347.89 108.919 347.336 108.968 346.793 109.084C346.213 109.217 345.697 109.548 345.337 110.019C344.977 110.49 344.794 111.072 344.821 111.662C344.821 113.734 344.821 115.805 344.821 117.876V118.838C344.821 119.112 344.734 119.288 344.408 119.288H342.556C342.259 119.288 342.143 119.153 342.143 118.879V118.351C342.143 114.82 342.153 111.29 342.172 107.761C342.172 107.585 342.172 107.409 342.172 107.237C342.172 106.898 342.325 106.763 342.646 106.767C343.203 106.767 343.765 106.791 344.322 106.767C344.701 106.767 344.854 106.93 344.829 107.299C344.829 107.528 344.829 107.761 344.829 108.162" fill="#232222"></path><path d="M333.342 10.7244C333.342 10.6057 333.375 10.4747 333.482 10.4174C335.351 9.42681 336.882 7.9614 338.735 6.93807C339.337 6.6106 339.874 6.07847 340.654 6.14396C340.698 6.14693 340.742 6.14123 340.784 6.12718C340.825 6.11313 340.864 6.09101 340.897 6.0621C342.018 5.14773 343.309 4.46069 344.697 4.03999C345.538 3.65665 346.422 3.3736 347.33 3.19677C347.613 3.13339 347.883 3.02413 348.13 2.8734C348.476 2.65181 348.869 2.51178 349.278 2.46406C350.293 2.35971 351.297 2.16518 352.277 1.88281C353.365 1.54997 354.483 1.32376 355.615 1.20741C356.899 1.13373 358.12 0.687558 359.416 0.720305C360.711 0.753051 362.015 0.658905 363.303 0.757145C364.053 0.697183 364.808 0.772064 365.531 0.978185C365.605 1.01093 365.729 1.04777 365.783 1.01093C366.369 0.532012 366.893 0.892225 367.413 1.12964C367.808 1.24165 368.22 1.28595 368.63 1.26062C369.27 1.22862 369.912 1.29489 370.532 1.4571C371.06 1.66996 371.733 1.56762 372.277 1.86644C372.326 1.90084 372.383 1.92201 372.443 1.92784C373.439 1.979 374.423 2.17341 375.364 2.505C376.159 2.68925 376.932 2.95539 377.671 3.2991C378.496 3.67159 379.358 3.96222 380.216 4.25694C381.269 4.61715 382.176 5.30074 383.258 5.59546C383.311 5.59546 383.348 5.66504 383.398 5.69779C383.919 6.15187 384.533 6.48967 385.197 6.68838C385.404 6.70561 385.602 6.77729 385.772 6.89601C385.942 7.01472 386.077 7.1762 386.162 7.36378C386.201 7.42595 386.255 7.47692 386.319 7.51146C386.384 7.54599 386.456 7.56284 386.53 7.56026C386.737 7.5684 386.936 7.64799 387.091 7.78539C388.364 8.60039 389.574 9.50892 390.71 10.5034C390.793 10.6253 390.905 10.7251 391.036 10.794C392.082 11.2479 392.982 11.9803 393.635 12.9102C394.155 13.5038 394.873 13.8722 395.418 14.4493C396.499 15.5832 397.419 16.8603 398.583 17.9205C398.903 18.2592 399.18 18.6359 399.408 19.042C399.775 19.5987 400.279 20.0613 400.646 20.6016C401.343 21.5245 401.92 22.5313 402.362 23.5979C402.478 23.9418 402.82 24.0973 402.994 24.4166C403.514 25.354 404.112 26.2586 404.623 27.1959C405.007 27.8959 405.271 28.6859 405.626 29.4268C405.981 30.1677 406.274 31.015 406.575 31.8214C406.976 32.7573 407.223 33.751 407.306 34.7645C407.306 34.8832 407.281 35.0265 407.339 35.1084C407.717 35.7581 407.995 36.4604 408.164 37.1919C408.308 37.6012 408.164 38.0105 408.288 38.338C408.474 39.0097 408.612 39.6936 408.7 40.3847C408.946 41.3876 409.095 42.4115 409.146 43.4424C409.171 44.1464 408.865 44.9323 409.393 45.6118C409.449 45.7325 409.478 45.8638 409.478 45.9966C409.478 46.1294 409.449 46.2607 409.393 46.3814C409.19 47.0557 409.18 47.773 409.365 48.4526C409.48 48.8619 409.233 49.1853 409.249 49.5701C409.234 51.3989 409.082 53.2241 408.795 55.0306C408.655 56.4387 408.094 57.7322 407.995 59.1239C407.995 59.3409 407.792 59.5332 407.718 59.7625C407.495 60.3806 407.025 60.925 407.128 61.6454C407.133 61.7637 407.098 61.8803 407.029 61.977C406.476 63.1635 406.03 64.3963 405.696 65.661C405.377 66.152 405.188 66.7153 405.148 67.2983C404.561 67.897 404.198 68.6771 404.12 69.5087C403.955 69.8493 403.738 70.1627 403.476 70.4379C403.116 70.9012 402.86 71.4358 402.725 72.0056C402.659 72.2598 402.515 72.4872 402.313 72.6565C401.665 73.4396 401.077 74.2702 400.555 75.1411C399.967 76.247 399.135 77.2069 398.12 77.9491C398.046 77.9941 397.918 78.0351 397.918 78.0965C397.716 78.8906 396.92 79.1198 396.458 79.6724C396.227 79.8905 396.058 80.1641 395.967 80.4665C395.851 81.0109 395.343 81.2852 394.947 81.6208C393.986 82.4395 392.975 83.2582 392.096 84.1628C391.651 84.5815 391.156 84.9457 390.623 85.2475C389.738 86.0581 388.698 86.6845 387.565 87.0895C387.482 87.1079 387.41 87.1579 387.363 87.2287C386.868 88.2357 385.762 88.3625 384.953 88.8947C384.273 89.3409 383.468 89.5291 382.816 90.0285C381.989 90.4519 381.101 90.7474 380.183 90.9045C380.047 90.9536 379.812 90.9373 379.771 91.0191C379.387 91.8623 378.533 91.7682 377.844 92.0097C376.347 92.5999 374.81 93.0814 373.243 93.4506C372.289 93.7504 371.274 93.8067 370.293 93.6143C370.212 93.5771 370.121 93.5699 370.035 93.5939C369.95 93.618 369.875 93.6717 369.826 93.7453C369.517 94.1955 369.001 94.1546 368.56 94.2324C368.121 94.2552 367.685 94.3141 367.256 94.4084C367.19 94.4359 367.12 94.45 367.049 94.45C366.979 94.45 366.908 94.4359 366.843 94.4084C366.15 93.8149 365.444 94.2447 364.743 94.3593C364.317 94.4707 363.869 94.4707 363.443 94.3593C363.186 94.2945 362.92 94.2683 362.655 94.2815C361.95 94.3374 361.241 94.2877 360.551 94.1341C360.377 94.1048 360.2 94.1145 360.031 94.1628C359.886 94.1833 359.742 94.2856 359.618 94.2651C358.983 94.1833 358.343 94.2447 357.72 94.216C356.872 94.1949 356.028 94.0949 355.199 93.9172C354.301 93.8014 353.433 93.524 352.636 93.0985C352.127 92.7919 351.535 92.6489 350.94 92.6892C350.778 92.7115 350.613 92.6694 350.482 92.5721C350.351 92.4748 350.263 92.3301 350.239 92.1693C350.217 92.1068 350.209 92.0405 350.213 91.9745C350.218 91.9085 350.236 91.8441 350.267 91.7853C350.297 91.7264 350.339 91.6742 350.39 91.6319C350.442 91.5896 350.501 91.558 350.565 91.539C350.732 91.4771 350.87 91.3561 350.953 91.1992C351.031 91.0273 351.328 90.8963 351.151 90.6835C350.973 90.4706 350.775 90.6548 350.614 90.7817C350.412 90.9018 350.177 90.9548 349.942 90.9332C349.216 90.9823 349.216 90.9864 349.282 91.7518C349.282 91.9033 349.306 92.0465 349.129 92.1079C349.073 92.1283 349.012 92.1284 348.956 92.1081C348.9 92.0879 348.853 92.0487 348.824 91.9974C348.312 91.2238 347.404 91.1255 346.653 90.7694C346.438 90.7001 346.256 90.5544 346.142 90.3601C345.873 89.8402 345.419 89.8443 345.143 90.3601C345.1 90.4681 345.071 90.5808 345.056 90.6957C345.038 90.7664 344.994 90.8281 344.934 90.8695C344.873 90.9109 344.799 90.9291 344.726 90.9209C344.314 90.9209 344.19 90.6057 344.083 90.3028C343.975 89.9999 344.202 89.8935 344.462 89.8689C344.722 89.8443 344.916 89.6888 344.875 89.4023C344.834 89.1157 344.553 89.1935 344.384 89.0993C344.318 89.0689 344.245 89.0562 344.172 89.0627C344.1 89.0691 344.031 89.0945 343.971 89.1362C342.795 89.8443 341.834 89.2017 340.947 88.5672C340.629 88.2791 340.213 88.1224 339.783 88.1292C339.37 88.1579 339.081 88.0064 339.09 87.5439C339.098 87.0813 338.76 86.7498 338.656 86.3159C338.52 85.7756 338.038 85.7223 337.691 86.1808C337.419 86.541 337.175 86.6515 336.837 86.32C336.747 86.2302 336.635 86.1649 336.512 86.1305C336.389 86.0961 336.259 86.0937 336.135 86.1235C335.702 86.1248 335.279 85.9955 334.922 85.7528C334.564 85.5101 334.29 85.1655 334.134 84.7645C334.594 84.1569 335.163 83.6392 335.813 83.2377C335.892 83.1973 335.963 83.1448 336.024 83.0822C337.262 81.7518 338.582 80.5034 339.738 79.1034C340.563 78.1129 341.388 77.1305 342.139 76.0948C342.841 75.1329 343.426 74.0891 344.107 73.119C344.847 71.9631 345.526 70.7704 346.142 69.5455C346.771 68.4253 347.288 67.2461 347.685 66.0253C348.015 64.9978 348.555 64.0482 348.848 63.0044C349.463 60.7899 350.049 58.5795 350.47 56.3118C351.092 52.6307 351.303 48.8926 351.097 45.1657C350.989 43.1026 350.727 41.0504 350.313 39.0257C349.919 36.9695 349.396 34.9394 348.749 32.9471C348.37 31.7559 347.887 30.5893 347.396 29.4391C346.129 26.4133 344.539 23.5314 342.651 20.8431C341.473 19.1738 340.205 17.5695 338.85 16.0375C338.025 15.1165 337.2 14.2242 336.288 13.3851C335.475 12.5895 334.62 11.838 333.726 11.1337C333.598 11.0109 333.486 10.8735 333.391 10.7244M336.54 85.3826C336.539 85.3465 336.531 85.3109 336.516 85.2781C336.501 85.2453 336.479 85.216 336.452 85.1921C336.425 85.1681 336.393 85.1501 336.358 85.1393C336.324 85.1284 336.287 85.1248 336.251 85.1288C336.098 85.1288 335.929 85.1493 335.945 85.3376C335.951 85.3808 335.965 85.4224 335.988 85.4599C336.01 85.4973 336.04 85.5298 336.076 85.5552C336.111 85.5806 336.152 85.5983 336.195 85.6074C336.238 85.6164 336.282 85.6165 336.325 85.6077C336.382 85.6036 336.436 85.5781 336.475 85.5363C336.514 85.4945 336.54 85.4396 336.54 85.3826Z" fill="#FF9C0B"></path><path d="M399.923 112.993C399.956 113.592 399.853 114.191 399.621 114.746C399.39 115.301 399.036 115.797 398.586 116.198C398.164 116.595 397.655 116.891 397.099 117.062C396.543 117.233 395.955 117.275 395.38 117.184C394.805 117.094 394.258 116.874 393.783 116.542C393.307 116.209 392.915 115.772 392.636 115.265C392.156 114.404 391.976 113.41 392.125 112.438C392.275 111.466 392.744 110.57 393.462 109.89C393.942 109.41 394.553 109.077 395.22 108.931C395.886 108.786 396.581 108.835 397.221 109.072C397.908 109.301 398.517 109.716 398.981 110.268C399.445 110.821 399.746 111.491 399.849 112.203C399.886 112.464 399.908 112.726 399.915 112.989" fill="white"></path><path d="M370.404 117.262C369.822 117.251 369.25 117.115 368.725 116.864C368.201 116.614 367.738 116.254 367.367 115.809C366.995 115.365 366.725 114.847 366.574 114.289C366.423 113.732 366.395 113.148 366.492 112.579C366.617 111.555 367.114 110.61 367.891 109.923C368.265 109.581 368.704 109.317 369.184 109.148C369.663 108.979 370.172 108.908 370.679 108.939C371.187 108.97 371.683 109.102 372.138 109.328C372.592 109.554 372.996 109.869 373.325 110.254C373.753 110.757 374.061 111.349 374.225 111.986C374.389 112.623 374.405 113.289 374.272 113.933C374.138 114.578 373.86 115.184 373.456 115.706C373.053 116.228 372.536 116.652 371.943 116.947C371.471 117.193 370.939 117.302 370.408 117.262" fill="white"></path><path d="M288.555 113.263C288.516 112.72 288.589 112.175 288.77 111.661C288.95 111.147 289.234 110.675 289.604 110.273C289.974 109.871 290.423 109.549 290.923 109.324C291.423 109.1 291.964 108.979 292.512 108.969C293.27 108.964 294.012 109.185 294.642 109.603C295.271 110.021 295.76 110.617 296.044 111.314C296.509 112.288 296.589 113.399 296.269 114.429C295.949 115.459 295.252 116.332 294.315 116.877C293.829 117.138 293.292 117.293 292.741 117.331C292.19 117.369 291.637 117.289 291.119 117.098C290.601 116.906 290.13 116.607 289.739 116.22C289.347 115.833 289.043 115.368 288.848 114.855C288.644 114.351 288.544 113.81 288.555 113.267" fill="white"></path><path d="M333.214 112.093C332.302 112.093 331.39 112.072 330.478 112.093C330.024 112.093 329.904 111.937 329.966 111.528C330.021 111 330.231 110.501 330.57 110.091C330.909 109.681 331.362 109.379 331.873 109.223C332.713 108.935 333.625 108.923 334.472 109.19C334.997 109.35 335.464 109.657 335.817 110.075C336.169 110.493 336.391 111.003 336.457 111.544C336.531 111.929 336.457 112.093 336.044 112.088H333.218L333.214 112.093Z" fill="white"></path><path d="M336.49 85.3843C336.49 85.4419 336.468 85.4974 336.428 85.5393C336.388 85.5812 336.334 85.6062 336.276 85.6094C336.233 85.6182 336.188 85.6181 336.145 85.6091C336.102 85.6 336.062 85.5822 336.026 85.5569C335.99 85.5315 335.96 85.499 335.938 85.4615C335.916 85.4241 335.901 85.3825 335.896 85.3392C335.896 85.151 336.049 85.1264 336.201 85.1305C336.237 85.1265 336.274 85.13 336.309 85.1409C336.343 85.1518 336.375 85.1698 336.403 85.1937C336.43 85.2176 336.452 85.247 336.467 85.2798C336.482 85.3126 336.49 85.3482 336.49 85.3843Z" fill="#FEA016"></path></g></g><g clip-path="url(#clip2_1172_142)"><path d="M598.052 110.98H528.936C527.684 111.046 526.429 110.952 525.202 110.7C523.13 110.205 521.291 109.019 519.993 107.338C518.696 105.658 518.018 103.586 518.074 101.468C518.051 89.9198 518.074 78.3678 518.074 66.8191C518.074 52.0055 518.207 37.1886 518.017 22.3851C517.957 21.0078 518.186 19.6332 518.689 18.3484C519.193 17.0637 519.959 15.8969 520.94 14.9221C521.921 13.9472 523.095 13.1856 524.388 12.6855C525.681 12.1854 527.064 11.9578 528.45 12.017C574.944 12.1024 621.439 12.1137 667.936 12.0507C669.475 11.96 671.014 12.2299 672.429 12.8386C673.844 13.4473 675.095 14.3778 676.082 15.5551C677.34 17.0224 678.021 18.8926 678 20.8201C677.963 47.9042 677.955 74.9893 677.976 102.076C677.979 104.293 677.143 106.43 675.634 108.063C674.125 109.696 672.053 110.706 669.83 110.892C668.947 110.97 668.061 110.98 667.175 110.98H598.052ZM598.134 109.371C621.384 109.371 644.634 109.297 667.885 109.428C669.065 109.491 670.245 109.306 671.348 108.884C672.451 108.462 673.452 107.813 674.285 106.98C675.119 106.147 675.765 105.149 676.183 104.05C676.601 102.951 676.78 101.777 676.71 100.605C676.628 74.5531 676.676 48.5012 676.672 22.4459C676.804 21.2498 676.663 20.0396 676.259 18.9053C675.855 17.771 675.199 16.7418 674.339 15.8942C673.48 15.0467 672.439 14.4026 671.295 14.0098C670.15 13.6171 668.931 13.4859 667.729 13.6258C621.323 13.6258 574.926 13.6124 528.539 13.5854C527.349 13.5198 526.159 13.7039 525.046 14.1256C523.933 14.5474 522.921 15.1973 522.078 16.0331C521.234 16.8689 520.577 17.8719 520.149 18.9768C519.721 20.0817 519.533 21.2637 519.595 22.4459C519.726 48.4978 519.726 74.5508 519.595 100.605C519.537 101.785 519.729 102.963 520.159 104.065C520.589 105.166 521.246 106.165 522.09 106.998C522.933 107.83 523.943 108.477 525.054 108.897C526.164 109.317 527.352 109.5 528.539 109.435C551.738 109.28 574.934 109.368 598.12 109.368" fill="#0BB7E5"></path><path d="M629.992 54.703C629.595 49.7415 629.945 44.7767 629.805 39.8152C629.775 38.7123 630.107 38.375 631.19 38.4391C632.594 38.5108 634.002 38.5108 635.406 38.4391C636.173 38.4088 636.373 38.6921 636.37 39.424C636.349 47.0309 636.349 54.6367 636.37 62.2413C636.37 62.9564 636.187 63.3342 635.413 63.2262C635.309 63.2094 635.204 63.2094 635.1 63.2262C633.451 63.6395 631.707 63.4566 630.181 62.7102C628.654 61.9639 627.445 60.7027 626.768 59.1518C624.456 55.1853 621.052 51.9137 618.961 47.7617C618.873 47.5829 618.737 47.4244 618.333 47.5121C618.558 50.2256 618.628 52.9496 618.543 55.671C618.543 57.7926 618.499 59.9175 618.567 62.0356C618.598 63.0036 618.275 63.2937 617.325 63.2431C615.923 63.1689 614.511 63.1992 613.109 63.2431C612.369 63.2599 611.969 63.1352 611.972 62.2312C612.002 54.6266 612.002 47.0208 611.972 39.4139C611.972 38.6685 612.22 38.3582 612.963 38.4526C613.067 38.4686 613.172 38.4686 613.276 38.4526C614.926 38.0453 616.669 38.2275 618.198 38.9674C619.728 39.7072 620.947 40.9576 621.642 42.5C624.137 46.706 627.752 50.1935 629.975 54.6963" fill="#047091"></path><path d="M581.91 85.1027C580.416 85.1027 579.062 85.0622 577.718 85.1027C576.835 85.1398 576.645 84.59 576.581 83.9492C576.404 82.1244 575.413 81.5511 573.648 81.8007C572.56 81.9359 571.46 81.9359 570.373 81.8007C569.086 81.659 568.37 82.1143 568.258 83.3758C568.132 84.8126 567.386 85.187 565.987 85.1162C563.493 84.9914 560.984 85.042 558.486 85.1162C558.08 85.1715 557.668 85.0937 557.31 84.8947C556.953 84.6956 556.671 84.3862 556.507 84.0133C555.46 82.0543 554.247 80.1869 552.882 78.4312C552.882 80.185 552.828 81.9423 552.903 83.6929C552.947 84.7047 552.726 85.133 551.565 85.1229C548.14 85.0926 548.14 85.1499 548.14 81.7501C548.14 77.1428 548.171 72.532 548.117 67.9214C548.117 66.8657 548.351 66.4576 549.474 66.5149C551.813 66.6363 554.162 66.5891 556.504 66.6903C557.807 66.711 559.062 67.1806 560.055 68.0189C561.048 68.8573 561.718 70.0123 561.949 71.2866C562.18 72.561 561.959 73.8756 561.323 75.0059C560.687 76.1361 559.676 77.0118 558.462 77.4834C558.323 77.5475 558.191 77.6352 557.953 77.7701L562.742 84.8126C563.442 82.8463 564.076 81.1025 564.691 79.3216C566.018 75.5137 567.386 71.7158 568.628 67.8809C568.663 67.6582 568.744 67.4451 568.866 67.2548C568.987 67.0645 569.147 66.901 569.335 66.7745C569.522 66.6481 569.734 66.5612 569.957 66.5195C570.18 66.4777 570.409 66.4819 570.631 66.5317C571.721 66.6247 572.818 66.6247 573.909 66.5317C574.144 66.4785 574.387 66.4741 574.624 66.5189C574.861 66.5637 575.085 66.6567 575.284 66.7919C575.483 66.9272 575.651 67.1019 575.778 67.305C575.906 67.5081 575.989 67.7351 576.024 67.9719C577.752 73.1729 579.588 78.3368 581.387 83.5107C581.55 83.9863 581.699 84.4652 581.899 85.0858M572.311 69.8878C571.805 71.6045 571.377 73.0852 570.926 74.5591C569.738 78.4447 569.738 78.4278 573.814 78.2288C574.554 78.1951 574.856 78.0871 574.588 77.2608C573.821 74.8998 573.115 72.5118 572.311 69.8878ZM553.962 70.478C553.076 70.2824 552.784 70.7377 552.852 71.6754C552.92 72.613 552.872 73.5338 552.852 74.4647C552.852 74.9706 552.896 75.3214 553.568 75.399C555.394 75.6081 556.826 74.7244 556.931 73.2336C557.06 71.3583 556.154 70.4881 553.951 70.4814" fill="#03AFD8"></path><path d="M577.568 49.7963C578.477 49.9431 579.343 50.2845 580.107 50.797C580.87 51.3095 581.512 51.9807 581.988 52.7641C582.464 53.5476 582.763 54.4246 582.865 55.3344C582.966 56.2441 582.867 57.1649 582.575 58.0328C582.199 59.448 581.362 60.6999 580.196 61.5936C579.03 62.4873 577.598 62.9727 576.126 62.9741C572.181 63.3687 568.217 63.2304 564.246 63.2742C563.38 63.2742 563.228 62.937 563.228 62.1679C563.248 54.6128 563.248 47.0587 563.228 39.5057C563.228 38.8312 563.319 38.4365 564.144 38.4602C568.1 38.3541 572.059 38.4577 576.003 38.7705C576.816 38.7908 577.615 38.9798 578.349 39.3253C579.084 39.6708 579.737 40.1652 580.268 40.7767C580.798 41.3882 581.195 42.1032 581.43 42.8759C581.666 43.6486 581.737 44.4618 581.638 45.2632C581.555 46.3575 581.11 47.3939 580.374 48.2117C579.637 49.0294 578.65 49.5829 577.565 49.7862M569.537 55.4897V57.3448C569.537 57.8203 569.656 58.1576 570.216 58.1542C571.717 58.2488 573.224 58.1353 574.693 57.817C575.195 57.6311 575.624 57.2918 575.919 56.848C576.214 56.4042 576.36 55.8788 576.336 55.3474C576.311 54.816 576.118 54.306 575.783 53.8909C575.448 53.4758 574.989 53.1771 574.473 53.0376C573.762 52.8927 573.042 52.8058 572.317 52.7779C569.548 52.7037 569.548 52.7206 569.548 55.4964M569.548 45.7152C569.578 48.6529 569.266 48.373 570.956 48.3797C574.123 48.3797 575.348 47.6647 575.325 45.8636C575.301 44.0625 574.167 43.5026 570.912 43.3812C568.58 43.3036 569.935 44.9968 569.554 45.7152" fill="#047091"></path><path d="M664.213 38.4803C661.385 42.1904 658.847 45.6509 656.155 48.9867C655.927 49.1766 655.744 49.4138 655.619 49.6816C655.493 49.9493 655.428 50.2411 655.428 50.5365C655.428 50.8319 655.493 51.1237 655.619 51.3915C655.744 51.6592 655.927 51.8964 656.155 52.0863C658.847 55.3108 661.392 58.6533 663.985 61.9553C664.26 62.2926 664.501 62.6805 664.905 63.2505C662.135 63.2505 659.597 63.2505 657.071 63.2505C656.342 63.2505 656.128 62.6737 655.805 62.2386C653.446 59.0378 651.111 55.8302 648.436 52.6699V60.2993C648.436 63.2505 648.436 63.2505 645.528 63.2505C641.682 63.2505 641.682 63.2505 641.682 59.3919C641.682 52.8722 641.709 46.3525 641.655 39.8294C641.655 38.7501 641.919 38.3723 643.04 38.4533C644.443 38.5445 645.852 38.5445 647.255 38.4533C648.273 38.3926 648.477 38.7906 648.46 39.7012C648.383 42.8822 648.476 46.0651 648.738 49.2363C650.212 47.1496 651.682 45.0629 653.151 42.9763C654.2 41.5023 654.97 39.482 656.406 38.7299C658.159 38.2754 659.988 38.1892 661.776 38.4769C662.454 38.4769 663.113 38.4769 664.203 38.4769" fill="#047091"></path><path d="M596.78 38.592C598.175 38.592 599.926 38.0861 600.853 38.7337C601.779 39.3813 601.976 41.1756 602.438 42.4877C604.688 48.9264 606.888 55.3855 609.182 61.8107C609.63 63.0587 609.359 63.342 608.11 63.2577C606.753 63.1698 605.393 63.1698 604.037 63.2577C603.117 63.315 602.784 62.944 602.543 62.1211C601.566 58.7921 601.525 58.7988 598.056 58.7988C596.389 58.7988 594.72 58.8426 593.053 58.7819C592.211 58.7516 591.879 59.0956 591.644 59.8477C590.579 63.2408 590.558 63.2206 587.059 63.2206C583.936 63.2206 583.939 63.2206 584.971 60.2356C587.307 53.4899 589.679 46.7678 591.929 39.9985C592.361 38.7101 592.975 38.2851 594.251 38.4234C595.084 38.4751 595.919 38.4808 596.753 38.4402V38.5617M600.147 53.9048L596.807 42.8283L593.508 53.9081L600.147 53.9048Z" fill="#047091"></path><path d="M597.136 78.7398C597.136 74.8981 597.174 71.451 597.116 68.004C597.099 66.9382 597.387 66.5806 598.501 66.584C601.976 66.584 601.976 66.5435 601.976 69.9197C601.976 74.5271 601.942 79.1378 602.004 83.7485C602.004 84.8278 601.701 85.0268 600.646 85.165C599.537 85.3863 598.387 85.2361 597.373 84.7381C596.36 84.2401 595.541 83.4224 595.045 82.4128C593.107 79.2423 590.446 76.544 588.511 73.2049C588.556 74.0818 588.627 74.9622 588.637 75.8391C588.657 77.8055 588.637 79.7719 588.637 81.7416C588.637 85.1414 588.637 85.0841 585.216 85.1381C584.048 85.1549 583.729 84.848 583.743 83.681C583.81 78.4497 583.8 73.2251 583.743 67.9871C583.743 66.9179 584.048 66.6919 585.127 66.5604C586.238 66.3392 587.391 66.4893 588.407 66.9871C589.423 67.4849 590.245 68.3025 590.745 69.3126C592.646 72.4494 595.307 75.0937 597.14 78.7566" fill="#03AFD8"></path><path d="M664.973 85.1004C663.086 85.1004 661.487 85.07 659.882 85.1004C659.128 85.1206 658.928 84.5877 658.643 84.1155C657.573 82.1975 656.348 80.3691 654.98 78.6481C654.98 80.4189 654.94 82.1896 654.997 83.9604C655.024 84.8407 654.729 85.0903 653.843 85.1139C650.16 85.2016 650.16 85.2319 650.16 81.5252C650.16 76.9684 650.191 72.4184 650.133 67.855C650.133 66.8161 650.449 66.5058 651.457 66.5395C653.955 66.6374 656.46 66.5901 658.958 66.7352C660.198 66.7634 661.386 67.2344 662.305 68.062C663.223 68.8895 663.812 70.0181 663.961 71.2413C664.305 72.4533 664.178 73.7493 663.607 74.8732C663.036 75.9972 662.061 76.8675 660.876 77.3124C659.966 77.7071 660.143 78.0174 660.56 78.6211C661.996 80.6887 663.398 82.7832 664.973 85.097M654.943 72.8603C654.97 73.1689 654.97 73.4792 654.943 73.7878C654.661 75.3225 655.483 75.5585 656.725 75.3123C656.979 75.2617 657.234 75.2112 657.485 75.137C657.779 75.0685 658.054 74.9389 658.293 74.7567C658.532 74.5746 658.73 74.344 658.873 74.0803C659.015 73.8166 659.1 73.5258 659.121 73.2271C659.143 72.9284 659.1 72.6286 658.996 72.3476C658.7 70.9243 657.539 70.2362 655.737 70.4757C654.24 70.6713 655.228 71.8619 654.946 72.5534C654.928 72.656 654.928 72.761 654.946 72.8636" fill="#03AFD8"></path><path d="M635.406 75.7095C635.406 73.072 635.44 70.4344 635.385 67.7968C635.368 66.8895 635.562 66.5118 636.573 66.532C639.591 66.5961 642.612 66.5894 645.629 66.532C646.607 66.5152 646.844 66.8288 646.827 67.78C646.776 70.6772 646.827 70.6773 643.98 70.6773C643.301 70.7243 642.621 70.7243 641.943 70.6773C640.585 70.4816 640.334 71.0719 640.317 72.3131C640.297 73.6285 640.684 74.0468 641.974 73.9051C642.951 73.7972 643.952 73.9759 644.943 73.8612C646.247 73.7095 646.593 74.2727 646.43 75.4262C646.386 75.7339 646.386 76.0461 646.43 76.3538C646.607 77.5343 646.186 78.0402 644.913 77.9087C643.935 77.8041 642.934 77.9795 641.943 77.8648C640.585 77.7063 640.31 78.2358 640.321 79.4939C640.331 80.752 640.66 81.1803 641.892 81.0218C642.57 80.9783 643.25 80.9783 643.929 81.0218C647.007 81.0218 646.983 81.0218 646.814 84.1484C646.773 84.8635 646.593 85.1603 645.823 85.1603C642.656 85.1299 639.472 85.1164 636.298 85.1603C635.307 85.1603 635.382 84.6139 635.385 83.9697V75.7028" fill="#03AFD8"></path><path d="M615.872 71.3527C614.856 70.58 613.64 70.1118 612.366 70.0035C611.436 70.0035 610.523 70.1789 610.292 71.2515C610.061 72.3241 610.838 72.8266 611.734 73.1335C612.63 73.4405 613.53 73.6664 614.419 73.9565C615.373 74.1453 616.247 74.6192 616.922 75.3148C617.598 76.0104 618.044 76.8945 618.2 77.8488C618.467 79.0197 618.391 80.2421 617.981 81.3716C617.572 82.5011 616.846 83.4907 615.889 84.2235C614.258 85.2652 612.331 85.7543 610.397 85.6175C608.463 85.4807 606.626 84.7254 605.16 83.4646C604.783 83.0902 604.555 82.763 604.922 82.2739C605.044 82.1087 605.139 81.9367 605.261 81.7444C605.73 80.999 606.039 79.9265 606.714 79.5959C607.573 79.1743 607.994 80.4762 608.751 80.8574C609.626 81.4277 610.662 81.7032 611.707 81.6432C612.156 81.636 612.588 81.4717 612.927 81.1793C613.266 80.8869 613.49 80.4851 613.56 80.0445C613.663 79.6082 613.595 79.1495 613.371 78.7608C613.147 78.3722 612.783 78.0824 612.352 77.95C611.381 77.5789 610.373 77.3058 609.392 76.9651C608.223 76.744 607.176 76.1031 606.451 75.1645C605.726 74.226 605.374 73.0553 605.462 71.8755C605.492 70.6223 605.93 69.4128 606.712 68.4291C607.494 67.4454 608.576 66.7408 609.796 66.4215C612.042 65.8515 614.42 66.1316 616.469 67.2074C617.199 67.5447 617.528 67.9258 617.063 68.7522C616.598 69.5785 616.299 70.4386 615.896 71.356" fill="#03AFD8"></path><path d="M621.147 75.7432C621.147 73.2068 621.198 70.6839 621.123 68.134C621.089 66.9704 621.344 66.4813 622.654 66.5285C625.515 66.6297 628.393 66.6094 631.248 66.5285C632.348 66.5015 632.656 66.8287 632.633 67.9046C632.589 70.6569 632.633 70.667 629.839 70.667C629.216 70.7122 628.589 70.7122 627.966 70.667C626.472 70.4478 625.956 70.9773 626.055 72.5086C626.123 73.5711 626.347 73.9724 627.463 73.8847C628.757 73.7903 630.067 73.8847 631.37 73.8544C632.049 73.8375 632.239 74.0702 632.287 74.7448C632.504 77.8714 632.531 77.8714 629.388 77.8714C626.102 77.8714 626.102 77.8714 626.102 81.0655V81.531C626.102 85.2411 626.102 85.2411 622.277 85.123C621.388 85.0994 621.109 84.8431 621.123 83.9628C621.167 81.2207 621.123 78.4752 621.123 75.7297" fill="#03AFD8"></path><path d="M536.349 78.0076C536.349 76.0952 536.315 74.1795 536.349 72.2738C536.373 71.3935 536.193 70.9989 535.161 70.9888C532.106 70.9517 532.171 70.901 532.147 67.852C532.147 66.8165 532.452 66.5366 533.461 66.5534C537.106 66.6052 540.751 66.6052 544.397 66.5534C545.32 66.5534 545.795 66.7592 545.629 67.7542C545.62 67.8574 545.62 67.9612 545.629 68.0645C545.646 70.9415 545.646 70.9955 542.744 70.9888C541.675 70.9888 541.454 71.3665 541.464 72.3379C541.508 76.1661 541.464 79.9976 541.501 83.8258C541.501 84.8107 541.264 85.1514 540.201 85.1547C536.322 85.1547 536.322 85.212 536.322 81.4446V78.0313" fill="#03AFD8"></path><path d="M547.951 38.4094C550.812 38.4094 553.677 38.4398 556.534 38.3926C557.465 38.3926 557.892 38.5005 557.892 39.6136C557.892 43.381 557.933 43.4046 554.087 43.3709C549.351 43.3282 544.617 43.2551 539.886 43.1517C539.143 43.1517 537.978 43.3271 537.795 42.5918C537.587 41.3716 537.587 40.1254 537.795 38.9053C537.839 38.4836 538.515 38.6152 538.908 38.6118C541.926 38.6118 544.943 38.6118 547.961 38.6118V38.4162" fill="#D41E1E"></path><path d="M548.344 52.6403C545.581 52.6403 542.822 52.6167 540.062 52.6403C539.156 52.6403 538.799 52.4144 538.786 51.4261C538.742 48.1915 538.694 48.1578 541.895 48.0971C546.793 48.0027 551.691 47.9892 556.585 47.8745C557.637 47.8475 557.878 48.1882 557.878 49.1832C557.878 52.8292 557.912 52.8292 554.28 52.8258H548.341V52.6302" fill="#D41E1E"></path><path d="M549.217 58.3027C551.715 58.3027 554.213 58.3331 556.708 58.3027C557.543 58.3027 557.865 58.4613 557.882 59.3854C557.957 63.2912 557.991 63.3182 554.067 63.2811C549.956 63.2406 545.849 63.109 541.736 63.0854C540.636 63.0854 540.188 62.7819 540.201 61.5845C540.235 58.468 540.174 58.4579 543.28 58.4208C545.259 58.3972 547.238 58.4208 549.22 58.4208L549.217 58.3027Z" fill="#D41E1E"></path><path d="M572.331 69.892C573.136 72.5161 573.842 74.9007 574.609 77.2651C574.877 78.0914 574.578 78.196 573.835 78.2297C569.762 78.4253 569.762 78.4456 570.946 74.5601C571.394 73.0861 571.822 71.6122 572.331 69.892Z" fill="#FDFEFE"></path><path d="M553.978 70.4722C556.185 70.4722 557.087 71.3558 556.958 73.2244C556.857 74.7118 555.424 75.5854 553.595 75.3898C552.916 75.3122 552.872 74.9614 552.879 74.4555C552.879 73.5246 552.933 72.5937 552.879 71.6662C552.824 70.7386 553.099 70.2765 553.989 70.4688" fill="#FDFEFE"></path><path d="M569.544 55.4968C569.544 52.7209 569.544 52.7041 572.314 52.7783C573.038 52.8066 573.759 52.8934 574.469 53.038C574.986 53.1774 575.445 53.4762 575.78 53.8913C576.114 54.3064 576.308 54.8163 576.333 55.3478C576.357 55.8792 576.211 56.4046 575.916 56.8484C575.621 57.2922 575.192 57.6314 574.69 57.8173C573.221 58.1354 571.714 58.2489 570.213 58.1546C569.656 58.1546 569.534 57.8173 569.534 57.3451C569.534 56.7279 569.534 56.1073 569.534 55.49" fill="#FDFEFE"></path><path d="M569.537 45.7057C569.934 44.9873 568.58 43.2941 570.895 43.3717C574.137 43.4763 575.27 44.0193 575.308 45.8541C575.345 47.689 574.109 48.3804 570.939 48.3703C569.242 48.3703 569.585 48.6435 569.537 45.7057Z" fill="#FDFEFE"></path><path d="M600.163 53.9319H593.511L596.82 42.8555L600.16 53.9319" fill="#FDFEFE"></path><path d="M654.94 72.8643C654.921 72.7617 654.921 72.6567 654.94 72.554C655.211 71.8795 654.224 70.6753 655.731 70.4763C657.536 70.2369 658.701 70.9283 658.989 72.3483C659.093 72.6293 659.136 72.9291 659.115 73.2278C659.094 73.5265 659.009 73.8173 658.866 74.081C658.723 74.3447 658.526 74.5752 658.287 74.7574C658.047 74.9396 657.772 75.0691 657.479 75.1376C657.231 75.2118 656.973 75.2624 656.718 75.313C655.476 75.5592 654.651 75.313 654.936 73.7885C654.964 73.4799 654.964 73.1695 654.936 72.8609" fill="#FDFEFE"></path></g><defs><clipPath id="clip0_1172_142"><rect width="186" height="58" fill="white" transform="translate(0 35)"></rect></clipPath><clipPath id="clip1_1172_142"><rect width="155" height="120" fill="white" transform="translate(255)"></rect></clipPath><clipPath id="clip2_1172_142"><rect width="160" height="99" fill="white" transform="translate(518 12)"></rect></clipPath></defs></svg>